<svg viewBox="54.55000000000007 272.75 981.9000000000003 545.4999999999999" xmlns="http://www.w3.org/2000/svg" xmlns:xlink="http://www.w3.org/1999/xlink" overflow="visible" width="981.9000000000003px" height="545.4999999999999px"><defs><path d="M0.76,386.266 C0.76,387.733 0.768,389.198 0.783,390.661 L0.783,390.661 L695.739,390.661 C695.761,389.198 695.761,387.733 695.761,386.266 L695.761,386.266 C695.761,173.302 540.18,0.66 348.262,0.66 L348.262,0.66 C156.342,0.66 0.76,173.302 0.76,386.266 L0.76,386.266 Z" id="masterstickersrainbow-path-1"/><path d="M0.761,387.266 L0.761,389.467 L0.793,392.661 L697.724,392.661 L697.75,390.68 C697.761,389.812 697.761,388.859 697.761,387.266 L697.761,387.266 C697.761,173.772 541.757,0.661 349.262,0.661 L349.262,0.661 C156.765,0.661 0.761,173.772 0.761,387.266 L0.761,387.266 Z M2.76,387.266 C2.76,174.833 157.92,2.66 349.262,2.66 L349.262,2.66 C540.603,2.66 695.761,174.833 695.761,387.266 L695.761,387.266 L695.761,390.255 C695.753,390.394 695.752,390.528 695.751,390.661 L695.751,390.661 L2.775,390.661 L2.783,391.651 C2.768,390.186 2.76,388.725 2.76,387.266 L2.76,387.266 Z" id="masterstickersrainbow-path-3"/><path d="M0.761,328.92 C0.761,330.168 0.767,331.414 0.779,332.661 L0.779,332.661 L591.743,332.661 C591.755,331.414 591.761,330.168 591.761,328.92 L591.761,328.92 C591.761,147.626 459.461,0.661 296.262,0.661 L296.262,0.661 C133.061,0.661 0.761,147.626 0.761,328.92 L0.761,328.92 Z" id="masterstickersrainbow-path-5"/><path d="M0.761,329.92 C0.761,330.748 0.761,331.578 0.769,332.414 L0.769,332.414 L0.79,334.661 L593.733,334.661 L593.742,333.671 C593.755,332.421 593.761,331.171 593.761,329.92 L593.761,329.92 C593.761,148.096 461.038,0.661 297.262,0.661 L297.262,0.661 C133.484,0.661 0.761,148.097 0.761,329.92 L0.761,329.92 Z M2.761,331.157 L2.761,329.92 C2.761,149.158 134.638,2.661 297.262,2.661 L297.262,2.661 C459.885,2.661 591.761,149.156 591.761,329.92 L591.761,329.92 L591.761,331.785 L591.75,332.661 L2.771,332.661 L2.761,331.157 Z" id="masterstickersrainbow-path-7"/><path d="M0.762,268.606 C0.762,269.626 0.767,270.645 0.777,271.661 L0.777,271.661 L482.745,271.661 C482.761,270.645 482.761,269.626 482.761,268.606 L482.761,268.606 C482.761,120.626 374.863,0.661 241.762,0.661 L241.762,0.661 C108.661,0.661 0.762,120.626 0.762,268.606 L0.762,268.606 Z" id="masterstickersrainbow-path-9"/><path d="M0.761,269.606 L0.766,271.409 L0.786,273.661 L484.729,273.661 L484.761,271.104 L484.761,269.606 C484.761,121.095 376.439,0.66 242.762,0.66 L242.762,0.66 C109.083,0.66 0.761,121.096 0.761,269.606 L0.761,269.606 Z M2.761,270.193 L2.761,269.606 C2.761,122.155 110.239,2.661 242.762,2.661 L242.762,2.661 C375.284,2.661 482.761,122.155 482.761,269.606 L482.761,269.606 L482.755,271.661 L2.768,271.661 L2.761,270.193 Z" id="masterstickersrainbow-path-11"/><path d="M0.761,208.306 L0.761,209.49 L0.782,211.661 L373.742,211.661 L373.761,209.206 L373.761,208.306 C373.761,93.649 290.288,0.66 187.262,0.66 L187.262,0.66 C84.235,0.66 0.761,93.649 0.761,208.306 L0.761,208.306 Z M2.761,208.306 C2.761,94.708 85.39,2.661 187.262,2.661 L187.262,2.661 C289.133,2.661 371.761,94.708 371.761,208.306 L371.761,208.306 L371.756,209.661 L2.761,209.661 L2.761,208.306 Z" id="masterstickersrainbow-path-13"/><path d="M0.761,146.004 C0.761,146.556 0.765,147.11 0.769,147.661 L0.769,147.661 L248.753,147.661 C248.756,147.11 248.761,146.556 248.761,146.004 L248.761,146.004 C248.761,65.733 193.243,0.66 124.76,0.66 L124.76,0.66 C56.278,0.66 0.761,65.733 0.761,146.004 L0.761,146.004 Z M124.76,2.659 C191.756,2.659 246.604,66.344 246.76,145.663 L246.76,145.663 L2.759,145.663 C2.917,66.344 57.765,2.659 124.76,2.659 L124.76,2.659 Z" id="masterstickersrainbow-path-15"/><path d="M80.803,79.779 C33.542,92.821 0.933,120.527 0.97994926,152.553 L0.97994926,152.553 C1.049,197.018 64.06,232.97 141.721,232.852 L141.721,232.852 C166.054,232.814 188.937,229.242 208.889,222.983 L208.889,222.983 C232.507,267.788 281.104,290.831 323.675,275.08 L323.675,275.08 C345.878,266.865 362.465,249.568 371.67,227.889 L371.67,227.889 C373.904,228.125 376.154,228.334 378.421,228.519 L378.421,228.519 C455.828,234.794 521.192,207.593 524.418,167.767 L524.418,167.767 C526.492,142.126 502.308,117.505 464.164,101.541 L464.164,101.541 C461.811,65.775 434.538,36.314 398.972,33.431 L398.972,33.431 C379.205,31.827 360.646,38.74 346.671,51.194 L346.671,51.194 C341.019,29.643 328.973,13.692 311.874,8.45 L311.874,8.45 C293.391,2.784 272.79,10.796 255.097,28.086 L255.097,28.086 C236.206,11.118 211.234,0.798 183.852,0.798 L183.852,0.798 C134.532,0.798 93.028,34.284 80.803,79.779 L80.803,79.779 Z" id="masterstickersrainbow-path-17"/><path d="M183.381,0.644 C135.412,1.291 93.963,33.528 81.066,79.078 L81.066,79.078 L80.855,79.834 L81.494,79.657 C32.622,93.144 0.769,121.611 0.817943547,153.554 L0.817943547,153.554 C0.887,198.836 64.504,235.135 142.723,235.015 L142.723,235.015 L144.216,235.008 C167.101,234.838 189.162,231.548 208.951,225.491 L208.951,225.491 L209.314,225.378 C233.593,270.56 282.612,292.885 325.079,277.171 L325.079,277.171 L325.792,276.904 C346.904,268.865 363.504,252.443 373.103,230.81 L373.103,230.81 L373.398,230.135 C375.365,230.336 377.34,230.517 379.326,230.678 L379.326,230.678 C457.289,236.998 523.283,209.537 526.577,168.861 L526.577,168.861 L526.631,168.093 C528.164,142.997 505.305,118.384 466.796,101.967 L466.796,101.967 L466.274,101.747 C463.544,65.382 435.633,36.155 400.066,33.271 L400.066,33.271 L399.323,33.215 C380.764,31.905 362.772,37.963 348.582,49.869 L348.582,49.869 L348.307,50.1 L348.223,49.804 C342.091,28.374 329.757,13.409 313.215,8.338 L313.215,8.338 L312.66,8.171 C294.714,2.94 274.434,10.061 256.397,27.184 L256.397,27.184 L256.064,27.5 L255.571,27.068 C236.104,10.137 211.215,0.635 184.852,0.635 L184.852,0.635 L183.381,0.644 Z M3.14394894,153.551 C3.098,122.879 34.136,95.14 82.113,81.9 L82.113,81.9 L82.755,81.724 L82.927,81.081 C95.219,35.336 136.829,2.962 184.852,2.962 L184.852,2.962 C211.228,2.962 236.089,12.679 255.32,29.953 L255.32,29.953 L256.13,30.68 L256.911,29.919 C274.852,12.388 295,5.187 312.533,10.562 L312.533,10.562 C328.578,15.481 340.563,30.337 346.362,51.794 L346.362,51.794 L347.028,54.326 L348.445,53.062 C362.6,40.449 380.958,34.056 399.878,35.59 L399.878,35.59 C434.509,38.398 461.663,67.051 464.003,102.617 L464.003,102.617 L464.049,103.336 L464.715,103.613 C503.511,119.85 526.23,144.294 524.258,168.673 L524.258,168.673 C521.101,207.65 456.363,234.589 379.515,228.359 L379.515,228.359 C377.26,228.176 375.02,227.967 372.79,227.732 L372.79,227.732 L371.935,227.642 L371.598,228.435 C362.245,250.464 345.581,267.104 324.27,274.99 L324.27,274.99 C282.699,290.372 234.52,268.213 210.918,223.441 L210.918,223.441 L210.466,222.583 L209.541,222.872 C189.224,229.245 166.404,232.652 142.72,232.688 L142.72,232.688 C142.593,232.688 142.462,232.688 142.335,232.688 L142.335,232.688 C65.407,232.689 3.211,197.129 3.14394894,153.551 L3.14394894,153.551 Z" id="masterstickersrainbow-path-19"/><path d="M213.235,6.198 C189.716,14.916 172.144,33.273 162.395,56.281 L162.395,56.281 C160.028,56.031 157.643,55.807 155.244,55.612 L155.244,55.612 C73.246,48.954 4.008,77.819 0.592,120.089 L0.592,120.089 C-1.605,147.3 24.012,173.431 64.418,190.372 L64.418,190.372 C66.908,228.329 95.798,259.597 133.475,262.658 L133.475,262.658 C156.837,264.553 178.605,255.202 193.813,238.984 L193.813,238.984 C206.472,257.949 228.184,270.459 252.844,270.459 L252.844,270.459 C276.164,270.459 296.849,259.272 309.734,242.017 L309.734,242.017 C322.831,247.808 337.979,251.116 354.117,251.116 L354.117,251.116 C403.836,251.116 444.139,219.725 444.139,181.004 L444.139,181.004 C444.139,180.64 444.137,180.273 444.129,179.908 L444.129,179.908 C450.839,181.151 457.84,181.811 465.039,181.811 L465.039,181.811 C514.757,181.811 555.06,150.42 555.06,111.697 L555.06,111.697 C555.06,72.975 514.757,41.585 465.039,41.585 L465.039,41.585 C448.363,41.585 432.749,45.116 419.357,51.268 L419.357,51.268 C415.437,43.094 409.988,35.904 402.982,30.077 L402.982,30.077 C379.231,10.31 343.477,11.058 309.584,28.527 L309.584,28.527 C290.473,10.98 266.616,0.944999557 242.598,0.944999557 L242.598,0.944999557 C232.731,0.944999557 222.84,2.637 213.235,6.198 L213.235,6.198 Z" id="masterstickersrainbow-path-21"/><path d="M213.235,6.198 C189.716,14.916 172.144,33.273 162.395,56.281 L162.395,56.281 C160.028,56.031 157.643,55.807 155.244,55.612 L155.244,55.612 C73.246,48.954 4.008,77.819 0.592,120.089 L0.592,120.089 C-1.605,147.3 24.012,173.431 64.418,190.372 L64.418,190.372 C66.908,228.329 95.798,259.597 133.475,262.658 L133.475,262.658 C155.976,264.484 176.999,255.876 192.105,240.75 L192.105,240.75 C192.683,240.169 193.252,239.582 193.813,238.984 L193.813,238.984 C194.267,239.667 194.734,240.338 195.211,241.002 L195.211,241.002 C208.036,258.832 229.069,270.459 252.844,270.459 L252.844,270.459 C276.164,270.459 296.849,259.272 309.734,242.017 L309.734,242.017 C322.831,247.808 337.979,251.116 354.117,251.116 L354.117,251.116 C403.258,251.116 443.201,220.452 444.125,182.354 L444.125,182.354 C444.134,181.904 444.139,181.455 444.139,181.004 L444.139,181.004 C444.139,180.64 444.137,180.273 444.129,179.908 L444.129,179.908 C444.928,180.057 445.73,180.196 446.536,180.326 L446.536,180.326 C452.506,181.298 458.695,181.811 465.039,181.811 L465.039,181.811 C514.757,181.811 555.06,150.42 555.06,111.697 L555.06,111.697 C555.06,72.975 514.757,41.585 465.039,41.585 L465.039,41.585 C448.363,41.585 432.749,45.116 419.357,51.268 L419.357,51.268 C415.437,43.094 409.988,35.904 402.982,30.077 L402.982,30.077 C379.231,10.31 343.477,11.058 309.584,28.527 L309.584,28.527 C290.471,10.978 266.618,0.945 242.598,0.945 L242.598,0.945 C232.733,0.945 222.838,2.638 213.235,6.198 L213.235,6.198 Z M164.605,57.222 C174.125,34.75 191.24,16.918 214.066,8.453 L214.066,8.453 C246.063,-3.407 281.542,6.041 307.965,30.303 L307.965,30.303 L309.196,31.433 L310.681,30.665 C344.097,13.445 378.717,13.009 401.452,31.926 L401.452,31.926 C408.175,37.523 413.415,44.428 417.196,52.312 L417.196,52.312 L418.217,54.439 L420.356,53.454 C433.426,47.449 448.699,43.991 465.039,43.991 L465.039,43.991 C514.029,43.991 552.662,74.833 552.662,111.697 L552.662,111.697 C552.662,148.561 514.029,179.405 465.039,179.405 L465.039,179.405 C457.985,179.405 451.132,178.76 444.565,177.544 L444.565,177.544 L441.673,177.007 L441.73,179.956 C441.738,180.304 441.74,180.653 441.74,181.004 L441.74,181.004 C441.74,217.867 403.109,248.71 354.117,248.71 L354.117,248.71 C338.304,248.71 323.486,245.468 310.7,239.816 L310.7,239.816 L308.956,239.044 L307.812,240.574 C295.366,257.244 275.381,268.053 252.844,268.053 L252.844,268.053 C229.012,268.053 208.036,255.967 195.807,237.647 L195.807,237.647 L194.131,235.135 L192.065,237.337 C177.324,253.056 156.254,262.095 133.667,260.26 L133.667,260.26 C97.256,257.303 69.23,227.064 66.81,190.214 L66.81,190.214 L66.714,188.727 L65.342,188.153 C45.353,179.773 29.167,169.175 18.283,157.443 L18.283,157.443 C7.408,145.719 1.954,133.016 2.984,120.283 L2.984,120.283 C4.582,100.513 21.673,83.272 49.37,71.724 L49.37,71.724 C76.938,60.23 114.353,54.705 155.05,58.01 L155.05,58.01 C157.432,58.203 159.796,58.424 162.143,58.674 L162.143,58.674 L163.909,58.861 L164.605,57.222 Z" id="masterstickersrainbow-path-23"/></defs><g id="Master/Stickers/Rainbow" stroke="none" stroke-width="1" fill="none" fill-rule="evenodd"><g id="Group-41" transform="translate(62.000000, 283.000000)"><g id="Group-3" transform="translate(104.000000, 1.339000)"><mask id="masterstickersrainbow-mask-2" fill="#fff"><use xlink:href="#masterstickersrainbow-path-1"/></mask><g id="Clip-2"/><polygon id="Fill-1" fill="#FF4E27" mask="url(#masterstickersrainbow-mask-2)" points="-4.239 395.661 700.761 395.661 700.761 -4.339 -4.239 -4.339"/></g><g id="Group-6" transform="translate(101.000000, 0.339000)"><mask id="masterstickersrainbow-mask-4" fill="#fff"><use xlink:href="#masterstickersrainbow-path-3"/></mask><g id="Clip-5"/><polygon id="Fill-4" fill="#000" mask="url(#masterstickersrainbow-mask-4)" points="-4.239 397.661 702.761 397.661 702.761 -4.339 -4.239 -4.339"/></g><g id="Group-9" transform="translate(156.000000, 60.339000)"><mask id="masterstickersrainbow-mask-6" fill="#fff"><use xlink:href="#masterstickersrainbow-path-5"/></mask><g id="Clip-8"/><polygon id="Fill-7" fill="#FF8F27" mask="url(#masterstickersrainbow-mask-6)" points="-4.239 337.661 596.761 337.661 596.761 -4.339 -4.239 -4.339"/></g><g id="Group-12" transform="translate(153.000000, 59.339000)"><mask id="masterstickersrainbow-mask-8" fill="#fff"><use xlink:href="#masterstickersrainbow-path-7"/></mask><g id="Clip-11"/><polygon id="Fill-10" fill="#000" mask="url(#masterstickersrainbow-mask-8)" points="-4.239 339.661 598.761 339.661 598.761 -4.339 -4.239 -4.339"/></g><g id="Group-15" transform="translate(210.000000, 120.339000)"><mask id="masterstickersrainbow-mask-10" fill="#fff"><use xlink:href="#masterstickersrainbow-path-9"/></mask><g id="Clip-14"/><polygon id="Fill-13" fill="#FFD027" mask="url(#masterstickersrainbow-mask-10)" points="-5.739 272.662 486.261 272.662 486.261 -8.338 -5.739 -8.338"/></g><g id="Group-18" transform="translate(207.000000, 119.339000)"><mask id="masterstickersrainbow-mask-12" fill="#fff"><use xlink:href="#masterstickersrainbow-path-11"/></mask><g id="Clip-17"/><polygon id="Fill-16" fill="#000" mask="url(#masterstickersrainbow-mask-12)" points="-4.239 278.661 489.761 278.661 489.761 -4.339 -4.239 -4.339"/></g><path d="M637.765,390.6403 C637.765,391.4303 637.755,392.2203 637.755,393.0003 L530.105,393.0003 C528.405,343.4903 495.295,304.0003 454.704,304.0003 C414.135,304.0003 381.035,343.4903 379.335,393.0003 L266.775,393.0003 C266.765,392.2203 266.765,391.4303 266.765,390.6403 C266.765,276.5203 349.815,184.0003 452.265,184.0003 C554.715,184.0003 637.765,276.5203 637.765,390.6403" id="Fill-19" fill="#90F567"/><g id="Group-23" transform="translate(263.000000, 182.339000)"><mask id="masterstickersrainbow-mask-14" fill="#fff"><use xlink:href="#masterstickersrainbow-path-13"/></mask><g id="Clip-22"/><polygon id="Fill-21" fill="#000" mask="url(#masterstickersrainbow-mask-14)" points="-4.239 216.661 378.761 216.661 378.761 -4.339 -4.239 -4.339"/></g><path d="M579.765,390.3405 C579.765,390.8905 579.755,391.4495 579.755,392.0005 L527.765,392.0005 C527.765,344.5005 495.075,306.0005 454.755,306.0005 C414.445,306.0005 381.765,344.5005 381.765,392.0005 L331.765,392.0005 L331.765,390.3405 C331.765,310.0695 387.275,245.0005 455.755,245.0005 C524.244,245.0005 579.765,310.0695 579.765,390.3405" id="Fill-24" fill="#7CC8FF"/><g id="Group-28" transform="translate(331.000000, 244.339000)"><mask id="masterstickersrainbow-mask-16" fill="#fff"><use xlink:href="#masterstickersrainbow-path-15"/></mask><g id="Clip-27"/><polygon id="Fill-26" fill="#000" mask="url(#masterstickersrainbow-mask-16)" points="-4.239 152.661 253.761 152.661 253.761 -4.339 -4.239 -4.339"/></g><g id="Group-31" transform="translate(1.000000, 243.339000)"><mask id="masterstickersrainbow-mask-18" fill="#fff"><use xlink:href="#masterstickersrainbow-path-17"/></mask><g id="Clip-30"/><polygon id="Fill-29" fill="#FFF" mask="url(#masterstickersrainbow-mask-18)" points="-4.837 285.847 530.357 285.847 530.357 -5.019 -4.837 -5.019"/></g><g id="Group-34" transform="translate(0.000000, 242.339000)"><mask id="masterstickersrainbow-mask-20" fill="#fff"><use xlink:href="#masterstickersrainbow-path-19"/></mask><g id="Clip-33"/><polygon id="Fill-32" fill="#000" mask="url(#masterstickersrainbow-mask-20)" points="-5 288 532.521 288 532.521 -5.183 -5 -5.183"/></g><g id="Group-37" transform="translate(412.000000, 236.339000)"><mask id="masterstickersrainbow-mask-22" fill="#fff"><use xlink:href="#masterstickersrainbow-path-21"/></mask><g id="Clip-36"/><polygon id="Fill-35" fill="#FFF" mask="url(#masterstickersrainbow-mask-22)" points="-5.528 276.448 561.049 276.448 561.049 -5.044 -5.528 -5.044"/></g><g id="Group-40" transform="translate(412.000000, 236.339000)"><mask id="masterstickersrainbow-mask-24" fill="#fff"><use xlink:href="#masterstickersrainbow-path-23"/></mask><g id="Clip-39"/><polygon id="Fill-38" fill="#000" mask="url(#masterstickersrainbow-mask-24)" points="-5.528 276.448 561.049 276.448 561.049 -5.044 -5.528 -5.044"/></g></g></g></svg>